# xmcd
#
# Track frame offsets: 
#        187
#        11525
#        35007
#        59710
#        66937
#        89245
#        99795
#        123865
#        130932
#        158102
#        182342
#        190307
#        211682
#        233072
#        258802
#        285160
#        286815
#        307225
#
# Disc length: 4295 seconds
#
# Revision: 2
# Processed by: cddbd v1.5.2PL0 Copyright (c) Steve Scherf et al.
# Submitted via: ExactAudioCopy v0.99pb4
#
DISCID=f810c512
DTITLE=H-Town - Beggin' After Dark
DYEAR=1994
DGENRE=R&B
TTITLE0=H-Town Intro '94
TTITLE1=Sex Bowl
TTITLE2=One Night Gigolo
TTITLE3=Prelude To Emotion
TTITLE4=Emotions
TTITLE5=Cruisin' Fo' Honeys
TTITLE6=Full Time
TTITLE7=1-900-CALL GI
TTITLE8=Tumble and Rumble
TTITLE9=Much Feelin' (And It Tastes Great)
TTITLE10=Beggin' After Dark
TTITLE11=Indo Love
TTITLE12=Back Seat (Wit No Sheets)
TTITLE13=Buss One
TTITLE14=Baby I Love Ya'
TTITLE15=Sticky Lee Presley
TTITLE16=Rockit Steady
TTITLE17=The Last record
EXTD=
EXTT0=
EXTT1=
EXTT2=
EXTT3=
EXTT4=
EXTT5=
EXTT6=
EXTT7=
EXTT8=
EXTT9=
EXTT10=
EXTT11=
EXTT12=
EXTT13=
EXTT14=
EXTT15=
EXTT16=
EXTT17=
PLAYORDER=
